# xmcd CD database file
#
# Track frame offsets:
#	13815
#	34838
#	49947
#	71474
#	86792
#	117572
#	138417
#	153262
#	169759
#	188911
#	206615
#	235983
#	247950
#
# Disc length: 3663 seconds
#
# Revision: 0
# Processed by: cddbd v1.5.2PL0 Copyright (c) Steve Scherf et al.
# Submitted via: CDex 1.51
#
DISCID=c10d970d
DTITLE=Andy Baylor - Possum Stole The Pumpkin - Gulf Coast Special
DYEAR=2009
DGENRE=Country
TTITLE0=Walking Down Johnson Street
TTITLE1=Breaux Bridge Bella
TTITLE2=La Valse de la Lune Blue (Blue Moon Waltz)
TTITLE3=A Long Ways from Home
TTITLE4=Gulf Coast Special
TTITLE5=Crooked Waltz
TTITLE6=Andy's Creole One-Step
TTITLE7=Five Note Tune
TTITLE8=Squirrel on the Fence
TTITLE9=Fatsound Two-Step
TTITLE10=In the Mountains Where I Was Born
TTITLE11=By the Bayou
TTITLE12=Zula's Waltz (Leavin' Louisiana)
EXTD=YEAR: 2009
EXTT0=
EXTT1=
EXTT2=
EXTT3=
EXTT4=
EXTT5=
EXTT6=
EXTT7=
EXTT8=
EXTT9=
EXTT10=
EXTT11=
EXTT12=
PLAYORDER=
